PathFileType	4	(X/Y/Z)	C:/Users/opensim2020/Desktop/walking_exp_matlab/subject06_walking14_straight_02.trc	
DataRate	CameraRate	NumFrames	NumMarkers	Units	OrigDataRate	OrigDataStartFrame	OrigNumFrames	
100.00	100.00	6	45	mm	100.00	1628	192	
Frame#	Time	LFHD			RFHD			LBHD			RBHD			C7			T10			CLAV			STRN			RBAK			LSHO			LUPA			LELB			LFRM			LWRA			LWRB			LFIN			RSHO			RUPA			RELB			RFRM			RWRA			RWRB			RFIN			LASI			RASI			LPSI			RPSI			LTHI			LKNE			LTIB			LANK			LHEE			LTOE			RTHI			RKNE			RTIB			RANK			RHEE			RTOE			*39			*40			*41			*42			*43			*44			
		X1	Y1	Z1	X2	Y2	Z2	X3	Y3	Z3	X4	Y4	Z4	X5	Y5	Z5	X6	Y6	Z6	X7	Y7	Z7	X8	Y8	Z8	X9	Y9	Z9	X10	Y10	Z10	X11	Y11	Z11	X12	Y12	Z12	X13	Y13	Z13	X14	Y14	Z14	X15	Y15	Z15	X16	Y16	Z16	X17	Y17	Z17	X18	Y18	Z18	X19	Y19	Z19	X20	Y20	Z20	X21	Y21	Z21	X22	Y22	Z22	X23	Y23	Z23	X24	Y24	Z24	X25	Y25	Z25	X26	Y26	Z26	X27	Y27	Z27	X28	Y28	Z28	X29	Y29	Z29	X30	Y30	Z30	X31	Y31	Z31	X32	Y32	Z32	X33	Y33	Z33	X34	Y34	Z34	X35	Y35	Z35	X36	Y36	Z36	X37	Y37	Z37	X38	Y38	Z38	X39	Y39	Z39	X40	Y40	Z40	X41	Y41	Z41	X42	Y42	Z42	X43	Y43	Z43	X44	Y44	Z44	X45	Y45	Z45	

49	0.480	-930.94617	465.43723	1655.07031	-1062.80847	458.13730	1646.50085	-938.57727	596.30841	1595.35657	-1067.98181	587.61694	1592.14673	-993.86609	585.84729	1437.86951	-1007.70258	609.62268	1108.43481	-994.49072	471.31555	1366.66846	-995.90149	425.57825	1192.69385	-1080.38318	652.95111	1269.21338	-832.26483	528.98407	1392.27063	-766.13727	567.73871	1193.35974	-761.05792	597.82526	1084.60547	-739.73175	608.39838	934.52496	-780.86230	573.44110	808.91870	-744.09302	634.43030	818.49200	-745.39081	614.14600	728.71362	-1155.33411	515.96924	1399.63867	-1250.70117	520.80847	1202.08704	-1271.21851	483.46039	1087.50940	-1291.21204	420.85156	986.49506	-1269.52478	301.86505	896.17389	-1293.57935	354.96872	864.79919	-1304.02576	287.27338	817.48285	-912.99335	411.45868	959.17767	-1130.68323	437.53812	958.05908	-926.39130	574.69049	980.60724	-1093.69531	585.80774	976.47003	-847.00208	443.32068	648.14691	-868.99359	430.61581	484.75604	-882.79742	423.10117	229.00395	-932.50470	397.87866	61.56471	-978.73950	434.59271	48.50820	-935.76477	249.83096	36.19745	-1191.83618	502.49628	615.87323	-1184.19348	500.71805	487.64685	-1158.65833	694.10254	313.01196	-1103.14111	832.57196	197.01628	-1053.48242	864.25385	215.65111	-1098.98535	785.76990	46.57947	-994.98291	563.71613	1690.82227															 
50	0.490	-930.48755	455.65921	1656.24841	-1062.37244	448.66312	1647.48047	-937.79913	586.30603	1596.34949	-1066.80017	577.77728	1592.87073	-992.58453	575.58270	1438.82568	-1007.02179	598.76770	1109.19336	-993.87000	461.12582	1367.74097	-995.17078	414.85922	1193.78076	-1078.80701	642.88342	1269.72375	-831.36310	517.78687	1393.00623	-764.31390	553.57709	1193.47839	-758.62640	582.11060	1084.22681	-736.85010	590.17316	934.00220	-779.09961	553.42676	809.14069	-741.14496	613.89557	817.60461	-742.40674	592.07770	728.30499	-1154.63977	506.41742	1400.29492	-1249.43750	512.99109	1202.14563	-1269.75586	477.09207	1087.02808	-1289.78662	416.97641	984.36700	-1268.75574	300.47888	890.51685	-1292.79724	354.56378	860.83429	-1303.68188	288.39874	811.59222	-911.81458	400.83731	960.07520	-1130.02478	427.32782	958.03900	-926.53479	564.31299	981.72253	-1093.89063	575.40753	976.77240	-846.21277	437.88000	648.72662	-867.51996	428.43686	484.91507	-882.52209	422.87833	228.96298	-932.57770	397.91370	61.45293	-978.68420	434.60818	48.43635	-935.89648	249.85709	36.14378	-1192.09045	486.74030	615.68872	-1185.21106	480.98730	487.88486	-1159.53015	674.00519	316.46851	-1103.05969	814.91949	204.16844	-1053.16016	845.21088	224.67653	-1100.54578	776.10321	50.96719	-994.33905	554.11774	1691.79126															 
51	0.500	-930.06537	445.89233	1657.43005	-1061.92822	439.26639	1648.47217	-936.94659	576.49939	1597.27527	-1065.94946	568.24237	1593.65356	-991.52618	565.58759	1439.70288	-1006.46875	588.22339	1110.06274	-993.34064	450.95700	1368.78003	-994.73615	404.26260	1194.79407	-1077.39929	632.87067	1270.38403	-830.57562	506.74084	1393.67590	-762.52686	539.19666	1193.53308	-756.31885	566.11133	1083.87854	-734.44543	571.07404	933.45435	-776.46265	532.22253	809.39276	-738.26367	592.77136	816.74164	-739.59894	568.95172	728.02020	-1154.05225	496.83984	1400.97498	-1248.27710	505.34805	1202.40601	-1268.23169	470.72559	1086.64966	-1288.27588	413.26883	982.28986	-1267.91699	299.51425	884.81232	-1292.12939	354.51999	856.91101	-1303.07117	289.63089	805.29706	-911.30652	391.15161	960.77942	-1129.53748	417.92419	958.03180	-926.37640	554.20160	982.81494	-1093.81030	565.29742	977.14410	-845.31647	433.39813	649.10236	-866.55682	426.03287	484.87259	-882.37738	422.53900	229.02620	-932.53595	397.54425	61.62561	-978.76727	434.79056	48.55017	-935.79694	249.68729	36.27800	-1192.32239	471.23419	615.89813	-1185.91907	461.26108	488.67560	-1160.40918	652.99872	319.08691	-1102.33093	796.72217	210.67068	-1051.32922	825.72949	231.39201	-1103.48828	762.75867	54.75245	-993.69366	544.59717	1692.71875															 
52	0.510	-929.60919	436.17032	1658.52087	-1061.45300	429.81769	1649.51331	-935.96558	566.71564	1598.04590	-1065.41040	559.08453	1594.42090	-990.60028	555.44446	1440.40515	-1005.79614	577.81873	1111.02979	-992.94952	440.75604	1369.78784	-994.44788	393.78894	1195.78296	-1076.11670	622.91980	1271.13232	-829.93298	495.75366	1394.40039	-761.05414	524.71991	1193.67554	-754.09735	549.79907	1083.55505	-732.38495	551.18970	933.23608	-773.98181	511.19473	809.88092	-735.19568	571.12628	816.13147	-736.46039	545.84796	727.93195	-1153.57239	487.32736	1401.70740	-1247.05139	497.64984	1202.73303	-1266.63293	464.27023	1086.36279	-1286.80933	409.67490	980.30438	-1267.04602	298.95459	879.11615	-1291.03247	355.03098	853.11285	-1302.72693	292.29068	799.89594	-910.80695	381.46652	961.44873	-1129.15637	407.39905	958.52142	-925.84253	544.19348	983.88605	-1093.29651	555.42755	977.63696	-844.35529	428.76959	649.51459	-865.73315	422.54376	485.13071	-882.20795	421.49094	229.09058	-932.56274	397.61554	61.67148	-978.83264	434.96259	48.62203	-935.93823	249.83157	36.07800	-1192.50928	455.77689	616.66162	-1186.58044	441.84348	490.04605	-1160.91614	632.14008	321.28806	-1101.06934	778.38098	216.67239	-1049.10242	806.78644	235.68333	-1106.33862	744.41412	59.26046	-992.97296	535.14435	1693.54370															 
53	0.520	-929.15210	426.50949	1659.57910	-1061.03162	420.49588	1650.61523	-935.15594	556.82898	1598.69080	-1064.28186	549.21765	1595.07898	-989.80743	545.55951	1441.15051	-1004.98322	567.56512	1111.91858	-992.65314	430.69064	1370.66650	-994.22827	383.25687	1196.74524	-1074.86475	613.05414	1271.96326	-829.39215	484.96121	1395.19141	-759.79407	510.13202	1193.86011	-752.03333	533.36377	1083.47217	-729.72394	531.67310	933.39856	-772.31073	489.84808	810.68262	-732.31146	549.08209	815.68097	-733.45300	521.92529	728.14423	-1153.15210	477.88000	1402.46460	-1245.83569	490.06735	1203.16882	-1264.94409	457.59949	1086.18237	-1285.28979	406.20605	978.42975	-1266.17114	298.78583	873.47974	-1290.26416	355.72446	849.40094	-1301.95691	294.41138	793.77826	-910.41260	372.01755	961.97614	-1128.84387	397.78394	959.14539	-925.02869	534.71191	985.11755	-1092.53894	546.09955	978.47614	-843.32928	423.21591	649.99054	-865.36243	418.43063	485.30005	-882.16901	419.94437	229.71945	-932.55853	397.63770	61.78520	-978.85626	435.22125	48.78753	-935.94202	249.94330	36.09852	-1192.56519	440.27133	617.97449	-1187.07117	422.51541	491.88589	-1160.75891	611.71753	323.61710	-1100.31958	758.55548	220.75772	-1047.94678	787.52502	238.08665	-1108.92212	721.91241	64.26362	-992.21198	525.70282	1694.30640															 
54	0.530	-928.68927	416.74332	1660.60486	-1060.61426	411.17847	1651.81482	-934.39880	547.01312	1599.34717	-1063.56787	539.72876	1595.86426	-989.11566	535.59113	1442.00049	-1004.21503	557.62335	1112.96729	-992.44525	420.56738	1371.59448	-994.22778	373.53568	1197.56995	-1073.77771	603.22375	1272.82080	-828.97888	474.23572	1395.99841	-758.76001	495.66867	1194.14990	-750.19318	516.77167	1083.47217	-727.50061	511.68002	933.56403	-770.18146	467.83206	811.64404	-729.57672	526.67041	815.48260	-730.51691	497.52155	728.75018	-1152.82288	468.53467	1403.26709	-1244.65283	482.24835	1203.60388	-1263.27637	451.00363	1086.06726	-1283.78992	402.84399	976.73035	-1265.22144	298.77402	867.95721	-1289.12427	356.90237	846.01428	-1301.46350	297.95685	788.73181	-909.96826	362.90381	962.39575	-1128.46045	388.16681	960.05548	-923.91895	524.89081	985.92554	-1091.46802	536.29834	979.29523	-842.91290	417.51422	650.39276	-865.05322	414.21423	485.55444	-882.27612	418.03848	230.31726	-932.54260	397.55252	61.87187	-978.81293	435.33310	48.93288	-935.90131	250.02074	36.12281	-1192.49707	424.80127	619.87079	-1187.33948	403.43524	494.24164	-1160.37976	591.76062	326.12964	-1099.98730	737.81158	222.38420	-1047.62390	768.27307	238.50395	-1110.68933	696.45288	67.54034	-991.45056	516.32159	1695.08301															 
